<svg width="31" height="31" viewBox="0 0 31 31" fill="none" xmlns="http://www.w3.org/2000/svg">
<path d="M30.25 15.2729C30.2532 17.149 29.9032 19.009 29.2181 20.756V20.756C28.1152 23.5559 26.1929 25.9592 23.7016 27.6526C21.2104 29.3461 18.2658 30.2512 15.2517 30.25C6.96502 30.25 0.14886 23.5441 0.251136 15.2774C0.305684 10.7516 2.52395 6.46627 5.32178 4.05705C7.54273 2.11485 10.2828 0.861118 13.2066 0.449332C16.1304 0.0375465 19.1111 0.485572 21.7838 1.73856C24.18 2.89734 26.2237 4.67252 27.7044 6.88142C27.7044 6.88142 27.7044 6.88142 27.7044 6.88142C29.0625 8.90314 29.9052 11.2254 30.1591 13.6463C30.2196 14.1864 30.25 14.7294 30.25 15.2729V15.2729Z" stroke="#1D1D1D" stroke-width="0.5" stroke-miterlimit="10"/>
<path d="M27.4383 8.45349C27.0588 8.11547 26.9315 8.15858 26.5519 7.60958C26.1724 7.06059 26.3405 6.59779 25.7473 6.55469C25.1541 6.51159 25.0291 6.08963 24.945 5.54291C24.8609 4.99618 23.5814 4.40862 23.1268 4.48802C22.6722 4.56742 19.9994 3.47397 19.2812 3.21989C18.563 2.96581 18.1448 1.70448 17.6311 1.61828C17.1175 1.53207 15.6879 1.74305 14.8424 2.63233C13.9969 3.52161 13.8264 2.12417 13.0673 2.37825C12.3082 2.63233 10.9104 3.93903 10.3195 4.93039C9.72856 5.92176 9.86493 6.38682 9.43082 6.76567C8.99672 7.14452 8.37396 6.17584 8.21714 5.83782C8.06032 5.4998 6.26252 5.79472 6.17161 5.32966C6.0807 4.8646 8.4126 3.85509 8.19896 3.17905C7.98531 2.50302 5.50407 3.94961 5.27637 4.09815C8.17278 1.51643 12.0123 0.102552 15.8922 0.262202C19.7721 0.421853 23.4373 2.08318 26.111 4.8941C26.0192 5.15634 25.9995 5.43838 26.0542 5.71078C26.1474 6.1282 26.8497 6.6409 27.3247 7.34415C27.7997 8.04741 27.8179 8.80285 27.4383 8.45349Z" stroke="#1D1D1D" stroke-width="0.5" stroke-miterlimit="10"/>
<path d="M29.2017 20.7809C27.8168 24.2368 25.2061 27.0631 21.8674 28.7209C21.8643 28.7224 21.8607 28.7228 21.8574 28.7222C21.854 28.7215 21.8509 28.7198 21.8486 28.7172C21.8463 28.7147 21.8449 28.7114 21.8446 28.708C21.8443 28.7045 21.8451 28.7011 21.8469 28.6982C22.0933 28.3375 22.3027 27.9529 22.4719 27.5503C22.6833 27.0013 22.2446 27.4028 21.5219 27.3597C20.7991 27.3166 20.315 26.0303 20.4423 25.3997C20.5696 24.769 21.2446 23.9637 21.1832 23.6483C21.1219 23.333 21.1401 23.3738 20.8855 23.2672C20.6309 23.1606 20.5923 23.4147 20.4628 23.7209C20.3332 24.0272 19.7673 23.5304 19.2377 23.3421C18.7081 23.1538 18.7513 22.9405 18.7104 22.7931C18.6695 22.6456 17.8422 22.9179 17.4831 22.6434C17.124 22.3689 16.6172 22.539 16.1944 22.539C15.7717 22.539 14.9671 21.7586 14.5466 21.6543C14.4737 21.6475 14.4032 21.6245 14.3403 21.587C14.2774 21.5495 14.2237 21.4984 14.1832 21.4375C14.1426 21.3766 14.1163 21.3074 14.106 21.235C14.0958 21.1626 14.1019 21.0888 14.1239 21.0191C14.1671 20.7468 13.3852 19.6874 13.1307 19.4968C12.8761 19.3063 12.8102 19.0114 12.7238 18.6325C12.6375 18.2537 12.4102 18.1788 12.2215 18.2015C12.0329 18.2242 12.1988 18.5803 12.3465 18.8344C12.5219 19.1424 12.6702 19.465 12.7897 19.7986C13.017 20.368 13.3034 20.0254 13.1511 20.4996C13.117 20.6016 12.6216 20.3317 12.4329 19.9097C12.1285 19.285 11.8599 18.6434 11.6283 17.9882C11.4103 17.3764 11.0966 16.8029 10.6988 16.2891C10.3192 15.7628 10.9101 14.6444 11.1215 14.1793C11.3329 13.7143 11.2488 13.104 11.1215 12.6821C10.9629 12.2469 10.9122 11.7799 10.9738 11.3209C11.0579 10.7696 10.3601 10.0959 10.1919 9.75786C10.0237 9.41984 9.83282 9.06368 9.41008 9.12493C8.98733 9.18618 8.39413 9.39943 8.14185 9.39943C7.88957 9.39943 7.29636 9.25424 7.21227 9.02057C7.12817 8.78691 8.07821 9.12493 8.54186 9.02057C9.00552 8.91622 8.76914 8.2606 9.07143 7.83865C9.37371 7.41669 9.99419 7.11724 10.2965 6.8677C10.6897 6.54783 10.4738 6.752 11.126 6.73839C11.7783 6.72478 11.8647 7.57776 12.2625 7.77059C12.6602 7.96342 13.342 7.75471 13.9034 7.23748C14.4648 6.72024 15.1012 6.78376 15.4808 6.38449C15.8603 5.98522 16.6172 5.86726 16.7285 6.56144C16.8399 7.25562 17.4967 7.62313 18.3536 8.11088C19.2104 8.59862 19.2264 8.36042 19.2968 9.17257C19.3673 9.98472 19.4923 9.65804 19.1968 9.77828C18.9013 9.89851 18.2877 9.64443 18.0286 8.99562C17.7695 8.34681 17.2445 8.46477 17.2899 9.17257C17.3354 9.88036 17.349 9.79416 16.7285 10.2206C16.1081 10.6471 15.4421 11.0169 16.299 11.1939C17.1558 11.3708 18.1627 12.8908 18.7241 12.8908C19.2854 12.8908 18.7672 11.7996 18.59 11.0623C18.4127 10.325 18.34 10.0732 18.9309 10.1322C19.5218 10.1912 19.79 10.1775 20.2468 10.5314C20.7037 10.8853 21.3719 10.6925 21.7424 10.9443C22.1128 11.1961 21.7424 11.5342 21.5923 12.006C21.4423 12.4779 20.9719 12.4597 21.1651 12.7751C21.3582 13.0904 22.1378 12.834 22.0742 13.2038C22.0105 13.5736 21.4219 13.2174 21.3196 13.9252C21.2173 14.633 20.5059 15.5495 20.4741 16.0804C20.4423 16.6112 20.5059 16.4343 20.2968 16.863C20.0877 17.2918 19.3059 17.7705 19.615 18.1901C19.9241 18.6098 20.2787 19.388 20.1628 19.726C20.0468 20.064 19.7627 19.4991 19.5241 18.9887C19.2854 18.4783 16.9058 18.8526 16.2899 19.1656C15.6739 19.4787 15.9967 20.3181 16.2899 21.2482C16.5831 22.1783 17.5808 20.7582 18.2218 20.6674C18.8627 20.5767 18.2218 21.9424 18.2831 22.1488C18.3445 22.3553 19.0082 22.0127 19.4764 22.0785C19.9446 22.1443 19.6764 22.3326 19.5991 22.9042C19.5218 23.4759 19.9196 23.358 20.2105 23.4215C20.5014 23.485 20.4855 23.1946 20.69 23.0948C20.8946 22.995 21.2832 23.0699 21.4083 22.6411C21.5333 22.2123 22.8265 22.2214 23.6311 21.7563C24.4356 21.2913 24.8334 21.9832 25.6152 21.5862C26.3971 21.1892 26.6925 21.652 27.0516 21.7563C27.4107 21.8607 28.9972 20.9056 29.2063 20.7809C29.2203 20.7467 29.204 20.7741 29.2017 20.7809Z" stroke="#1D1D1D" stroke-width="0.5" stroke-miterlimit="10"/>
<path d="M16.7789 5.41121C16.8175 4.86902 18.0494 4.26331 18.5312 4.77601C19.013 5.28871 20.4358 5.53144 20.5767 5.89442C20.7177 6.25739 20.7881 7.13079 20.9699 7.52325C21.1518 7.91572 22.0882 9.00236 21.1813 8.85037C20.2745 8.69837 18.6812 6.92662 17.9153 6.89259C17.1493 6.85856 16.7493 5.83316 16.7789 5.41121Z" stroke="#1D1D1D" stroke-width="0.5" stroke-miterlimit="10"/>
<path d="M21.504 5.68798C21.504 5.68798 21.879 5.64261 21.9858 5.79233C22.0926 5.94206 22.2995 6.30276 22.1495 6.40712C22.0579 6.4565 21.9527 6.47438 21.8499 6.45797C21.7472 6.44157 21.6528 6.3918 21.5812 6.31637C21.4903 6.16665 21.2494 5.89669 21.504 5.68798Z" stroke="#1D1D1D" stroke-width="0.5" stroke-miterlimit="10"/>
<path d="M19.2854 20.3158C19.2854 20.3158 18.9308 20.5993 19.2172 20.5857C19.5036 20.5721 19.7036 20.3294 19.8218 20.3589C19.9399 20.3883 20.2991 20.411 20.5036 20.4451C20.7082 20.4791 20.9104 20.4133 20.8604 20.5812C20.8104 20.749 20.9104 20.6833 21.2491 20.5812C21.5877 20.4791 21.8218 20.1887 21.4173 20.2091C20.8173 20.2409 20.6263 20.0707 20.3013 20.0413C19.9423 20.0247 19.587 20.1207 19.2854 20.3158V20.3158Z" stroke="#1D1D1D" stroke-width="0.5" stroke-miterlimit="10"/>
<path d="M21.9453 20.3725C21.8907 20.4995 22.1294 20.6492 21.9453 20.6969C21.7612 20.7445 21.3089 21.0167 21.6362 20.9827C21.9635 20.9487 22.3862 20.8511 22.4203 20.6969C22.4544 20.5426 22.6476 20.436 22.809 20.3725C22.9703 20.3089 23.0976 20.0208 22.809 20.0458C22.6141 20.0703 22.4253 20.1303 22.2521 20.2227C22.1089 20.2658 22.0544 20.0912 21.9453 20.3725Z" stroke="#1D1D1D" stroke-width="0.5" stroke-miterlimit="10"/>
</svg>
